<svg xmlns="http://www.w3.org/2000/svg" width="67" height="65" viewBox="0 0 67 65"><defs><clipPath id="otz0a"><path fill="#fff" d="M0 65V0h67v65zm1.816-32.5C1.816 49.895 16.12 64 33.764 64S65.71 49.895 65.71 32.5C65.71 15.102 51.408 1 33.764 1S1.816 15.102 1.816 32.5z"/></clipPath></defs><g><g><path d="M33.764 1C51.408 1 65.71 15.102 65.71 32.5c0 17.396-14.303 31.5-31.947 31.5S1.816 49.895 1.816 32.5C1.816 15.102 16.12 1 33.764 1z"/><path fill="none" stroke="#1275b9" stroke-linecap="round" stroke-linejoin="round" stroke-miterlimit="20" stroke-width="2" d="M33.764 1C51.408 1 65.71 15.102 65.71 32.5c0 17.396-14.303 31.5-31.947 31.5S1.816 49.895 1.816 32.5C1.816 15.102 16.12 1 33.764 1z" clip-path="url(&quot;#otz0a&quot;)"/></g></g></svg>